<?xml version="1.0" encoding="iso-8859-1"?>
<!-- Uploaded to: SVG Repo, www.svgrepo.com, Generator: SVG Repo Mixer Tools -->
<svg height="456px" width="456px" version="1.1" id="Layer_1" xmlns="http://www.w3.org/2000/svg" xmlns:xlink="http://www.w3.org/1999/xlink" 
	 viewBox="0 0 512.213 512.213" xml:space="preserve">
<g transform="translate(1 1)">
	<path style="fill:#FFE100;" d="M144.173,93.08v-51.2h17.067V7.747H58.84V41.88h17.067v110.933l-47.787,40.96
		c-6.827,6.827-2.56,18.773,6.827,18.773h40.96v256H58.84v34.133h392.533v-34.133h-17.067v-256h40.96
		c9.387,0,13.653-11.947,6.827-17.92L285.827,20.547c-17.067-16.213-44.373-16.213-61.44,0L144.173,93.08z"/>
	<g>
		<path style="fill:#FFA800;" d="M152.707,417.347L152.707,417.347c-6.827-6.827-6.827-17.92,0-25.6l180.907-179.2
			c6.827-6.827,17.067-6.827,23.893,0s6.827,17.92,0,25.6L176.6,417.347C169.773,424.173,159.533,424.173,152.707,417.347"/>
		<path style="fill:#FFA800;" d="M212.44,238.147c0-18.773-15.36-34.133-34.133-34.133s-34.133,15.36-34.133,34.133
			s15.36,34.133,34.133,34.133S212.44,256.92,212.44,238.147"/>
		<path style="fill:#FFA800;" d="M366.04,391.747c0-18.773-15.36-34.133-34.133-34.133s-34.133,15.36-34.133,34.133
			c0,18.773,15.36,34.133,34.133,34.133S366.04,410.52,366.04,391.747"/>
	</g>
	<path d="M451.373,511.213H58.84c-5.12,0-8.533-3.413-8.533-8.533v-34.133c0-5.12,3.413-8.533,8.533-8.533h8.533V221.08H34.947
		c-7.68,0-15.36-5.12-17.92-11.947s-0.853-15.36,5.12-21.333l45.227-39.253V50.413H58.84c-5.12,0-8.533-3.413-8.533-8.533V7.747
		c0-5.12,3.413-8.533,8.533-8.533h102.4c5.12,0,8.533,3.413,8.533,8.533V41.88c0,5.12-3.413,8.533-8.533,8.533h-8.533v23.04
		l65.707-59.733c20.48-19.627,52.907-19.627,73.387,0L488.067,187.8c5.973,5.12,7.68,13.653,5.12,20.48
		c-2.56,7.68-9.387,11.947-17.92,11.947H442.84V459.16h8.533c5.12,0,8.533,3.413,8.533,8.533v34.133
		C459.907,507.8,456.493,511.213,451.373,511.213z M67.373,494.147H442.84V477.08h-8.533c-5.12,0-8.533-3.413-8.533-8.533v-256
		c0-5.12,3.413-8.533,8.533-8.533h40.96c0,0,0.853,0,1.707-0.853c0.853-0.853,0-1.707-0.853-1.707L279.853,27.373
		c-14.507-13.653-35.84-13.653-49.493,0l-80.213,73.387c-2.56,2.56-5.973,2.56-9.387,1.707c-3.413-2.56-5.12-5.973-5.12-9.387v-51.2
		c0-5.12,3.413-8.533,8.533-8.533h8.533V16.28H67.373v17.067h8.533c5.12,0,8.533,3.413,8.533,8.533v110.933
		c0,2.56-0.853,5.12-2.56,6.827L34.093,200.6c-0.853,0.853-0.853,1.707-0.853,2.56c0.853,0.853,0.853,0.853,1.707,0.853h40.96
		c5.12,0,8.533,3.413,8.533,8.533v256c0,5.12-3.413,8.533-8.533,8.533h-8.533V494.147z"/>
	<path d="M164.653,431L164.653,431c-6.827,0-13.653-2.56-17.92-7.68c-9.387-10.24-9.387-26.453,0-36.693L327.64,206.573
		c9.387-10.24,26.453-10.24,36.693,0c9.387,10.24,9.387,26.453,0,36.693L182.573,423.32C178.307,428.44,171.48,431,164.653,431z
		 M345.56,215.96c-2.56,0-4.267,0.853-5.973,2.56L158.68,398.573c-3.413,3.413-3.413,9.387,0,12.8
		c1.707,1.707,3.413,2.56,5.973,2.56l0,0c2.56,0,4.267-0.853,5.973-2.56L351.533,231.32c3.413-3.413,3.413-9.387,0-12.8
		C349.827,216.813,347.267,215.96,345.56,215.96z"/>
	<path d="M178.307,280.813c-23.893,0-42.667-18.773-42.667-42.667s18.773-42.667,42.667-42.667s42.667,18.773,42.667,42.667
		S202.2,280.813,178.307,280.813z M178.307,212.547c-14.507,0-25.6,11.093-25.6,25.6c0,14.507,11.093,25.6,25.6,25.6
		c14.507,0,25.6-11.093,25.6-25.6C203.907,223.64,192.813,212.547,178.307,212.547z"/>
	<path d="M331.907,434.413c-23.893,0-42.667-18.773-42.667-42.667c0-23.893,18.773-42.667,42.667-42.667
		c23.893,0,42.667,18.773,42.667,42.667C374.573,415.64,355.8,434.413,331.907,434.413z M331.907,366.147
		c-14.507,0-25.6,11.093-25.6,25.6c0,14.507,11.093,25.6,25.6,25.6c14.507,0,25.6-11.093,25.6-25.6
		C357.507,377.24,346.413,366.147,331.907,366.147z"/>
</g>
</svg>